PathFileType	4	(X/Y/Z)	 s08c0302.trc
DataRate	CameraRate	NumFrames	NumMarkers	Units	OrigDataRate	OrigDataStartFrame	OrigNumFrames
200	200	4	50	mm	200	751	2000
Frame#	Time	racr			lacr			c7			jug			rlel			rdr			llel			ldr			s2			lic			ric			lasi			rasi			rpsi			lpsi			rgt			lgt			rth1			rth2			rth3			rth4			rlfc			rmfc			rsh1			rsh2			rsh3			rsh4			rlmal			rmmal			rcal			rtoe			rmt5			lth1			lth2			lth4			lth3			llfc			lmfc			llmal			lmmal			lcal			lmt5			lsh1			lsh2			lsh3			lsh4			ltoe			SBIKE			LBIKE			RBIKE			
		X1	Y1	Z1	X2	Y2	Z2	X3	Y3	Z3	X4	Y4	Z4	X5	Y5	Z5	X6	Y6	Z6	X7	Y7	Z7	X8	Y8	Z8	X9	Y9	Z9	X10	Y10	Z10	X11	Y11	Z11	X12	Y12	Z12	X13	Y13	Z13	X14	Y14	Z14	X15	Y15	Z15	X16	Y16	Z16	X17	Y17	Z17	X18	Y18	Z18	X19	Y19	Z19	X20	Y20	Z20	X21	Y21	Z21	X22	Y22	Z22	X23	Y23	Z23	X24	Y24	Z24	X25	Y25	Z25	X26	Y26	Z26	X27	Y27	Z27	X28	Y28	Z28	X29	Y29	Z29	X30	Y30	Z30	X31	Y31	Z31	X32	Y32	Z32	X33	Y33	Z33	X34	Y34	Z34	X35	Y35	Z35	X36	Y36	Z36	X37	Y37	Z37	X38	Y38	Z38	X39	Y39	Z39	X40	Y40	Z40	X41	Y41	Z41	X42	Y42	Z42	X43	Y43	Z43	X44	Y44	Z44	X45	Y45	Z45	X46	Y46	Z46	X47	Y47	Z47	X48	Y48	Z48	X49	Y49	Z49	X50	Y50	Z50	
751	3.7550	843.544382	1389.481220	-69.856282	779.979325	1398.810735	-402.194852	789.580078	1454.333431	-218.237865	765.929464	1295.283011	-231.204601	737.542248	1152.894330	78.095771	803.058516	892.238738	-30.731566	690.721467	1133.966024	-488.086980	813.067383	892.046273	-400.711608	225.018522	1239.983747	-149.155677	366.790833	1257.698803	-314.827970	420.910346	1186.310940	-23.448299	388.946046	1200.241255	-286.996319	423.616961	1129.587890	-63.562681	273.223402	1260.349069	-91.745921	255.419847	1289.683186	-184.187269	303.641436	1080.628037	-6.807536	309.550204	1159.177526	-368.175772	337.293514	922.603476	-7.879114	369.688874	840.554755	-18.716762	355.738874	755.380310	-33.057073	404.541566	845.766877	-29.625000	374.053930	641.342004	-58.017682	334.372235	636.710613	-160.806495	314.447216	523.472001	-20.181825	317.041490	436.085924	-40.751198	276.273744	359.639189	-45.544683	342.453557	434.856818	-73.048675	240.936524	244.402699	-51.154247	254.019174	263.540629	-142.189590	159.292642	230.123522	-96.821632	450.916513	163.906827	-99.110716	357.187435	148.887934	-32.722050	403.068266	1058.180067	-378.944914	480.046185	1016.595507	-376.892990	504.113792	1039.407706	-358.425547	526.878609	941.150393	-384.693341	577.982350	826.365820	-372.182269	567.622237	792.783279	-267.432584	218.910868	620.441115	-387.105319	251.959000	610.752784	-304.496358	154.588573	649.382815	-348.277113	257.179612	462.298427	-412.137544	477.276190	757.858384	-396.448893	412.974379	701.830803	-384.109618	327.932129	680.155046	-387.266283	426.893218	679.909222	-354.934248	333.282217	421.926882	-340.550312	-141.330506	937.976892	-218.812659	17.530794	83.845405	-424.121461	10.517795	80.140072	-26.274835	
752	3.7600	842.944879	1395.064824	-74.258978	776.578578	1402.311285	-406.618894	787.266654	1458.764342	-222.308768	765.427100	1299.444146	-234.905484	741.402931	1156.352567	73.532719	803.933049	892.300810	-31.087641	688.824702	1135.282635	-490.109722	813.161807	892.506023	-400.688281	226.613095	1239.223093	-145.090390	364.928393	1259.532045	-312.780566	424.691164	1186.472466	-22.793498	388.950927	1202.377505	-285.307165	425.776489	1128.252243	-63.483355	277.316773	1258.817153	-89.766580	255.713339	1289.295438	-180.125965	306.387460	1080.720696	-4.937074	309.072374	1161.990827	-366.082478	335.378122	922.422829	-6.029984	365.789088	839.492888	-16.727195	350.148636	754.673543	-29.884485	400.544940	843.765341	-28.375685	364.843047	640.443008	-56.210012	324.263492	636.695943	-158.866926	304.947615	522.885381	-18.371136	307.808570	434.961338	-38.608798	267.371338	358.916416	-44.227159	332.957017	434.549068	-71.101272	232.860160	243.150567	-50.628992	245.901505	262.689510	-141.402953	151.572595	230.998846	-96.230863	441.678598	157.882975	-99.214945	347.646368	145.045796	-32.685950	403.559659	1062.353158	-377.576707	481.516693	1022.194204	-377.223793	505.259096	1045.342677	-358.729163	529.396949	947.547806	-385.884772	583.049365	833.266388	-373.928492	573.995372	799.410039	-268.450802	226.636496	623.423474	-386.825793	259.923595	614.264877	-304.470579	161.481298	651.739119	-347.909693	267.191210	466.875076	-412.394220	483.750993	763.709182	-397.701761	419.992929	707.002269	-385.025204	335.130125	684.569823	-387.742417	434.327196	685.018838	-356.014396	343.946280	427.328329	-340.773989	-141.395860	937.962917	-218.808048	17.519020	83.841580	-424.139631	10.523485	80.135823	-26.277728	
753	3.7650	842.165972	1400.619785	-78.709383	773.181035	1406.010196	-410.861490	784.784899	1463.119369	-226.544754	762.824667	1303.468780	-236.682502	745.404004	1159.777614	68.964451	805.188816	892.401108	-30.862288	687.837577	1136.481292	-490.074920	813.288525	893.007853	-400.732452	227.812167	1239.360514	-141.439419	363.411890	1261.497707	-310.959702	428.282704	1187.243334	-22.151797	388.969095	1204.694986	-283.782861	427.973781	1127.168642	-63.576710	279.920299	1258.899070	-86.962512	256.606528	1289.243626	-176.570140	308.740685	1081.067560	-3.287319	309.101537	1164.895651	-363.990438	333.538521	922.914735	-3.747673	362.073815	839.211465	-14.389639	344.096480	754.761388	-27.038992	396.807515	842.663737	-26.710489	356.175846	640.341019	-54.092085	317.044874	635.558907	-156.418135	295.650211	523.112650	-16.425477	299.098380	435.786692	-36.962393	258.762063	359.100001	-42.870777	324.380055	434.934335	-69.082429	225.038090	243.086605	-50.166031	238.386336	262.921302	-140.568029	144.243601	233.125373	-95.942997	432.208443	151.860302	-99.357470	337.901395	141.659903	-32.685009	404.197659	1066.785998	-376.497306	482.756908	1027.854811	-377.935907	506.607736	1051.167147	-359.325619	531.518656	953.819504	-387.425697	587.756935	840.067787	-375.677703	580.271885	805.833120	-270.055838	234.503197	625.700238	-386.807621	267.907923	617.059657	-304.535571	168.414079	653.213549	-347.820813	277.516041	470.330600	-412.345911	490.198979	769.132677	-398.911182	427.004501	711.726051	-386.128577	342.373896	688.225355	-388.330363	441.702409	689.804027	-357.294190	354.963290	432.298981	-340.664623	-141.457900	937.957377	-218.725147	17.503336	83.856841	-424.135023	10.531871	80.140812	-26.260171	
754	3.7700	841.243148	1406.173642	-83.073016	769.868710	1409.901943	-414.829922	782.121769	1467.511883	-230.975395	760.253916	1307.227031	-238.786310	749.432960	1163.285054	64.344801	805.292634	892.525423	-31.993778	687.097250	1137.832283	-489.980541	815.475764	895.309998	-404.354698	229.198900	1240.091914	-138.720096	362.078799	1263.636093	-309.141858	431.504247	1188.614329	-21.676834	389.168426	1206.994774	-282.147417	430.433696	1127.042376	-63.106367	281.306553	1260.004090	-83.599615	256.911199	1290.233755	-173.013223	311.073371	1082.050680	-1.422802	309.495388	1168.058239	-362.076154	332.158767	924.007583	-1.372732	358.531690	839.660636	-11.820383	338.536369	755.409380	-24.667484	393.690852	842.246477	-24.386858	348.194020	640.981625	-51.979508	309.729579	636.559609	-154.597939	286.893373	524.188846	-14.429969	290.800776	436.952783	-34.922009	250.640020	360.168810	-41.587607	316.418023	436.157158	-66.944778	217.679981	244.099446	-49.869486	231.719355	263.970129	-139.792970	137.313161	236.524667	-95.945627	422.681805	146.143204	-99.230878	327.991122	138.955614	-32.679903	404.692038	1071.382915	-375.727314	483.831661	1033.416471	-378.626840	506.740053	1056.913463	-361.123134	533.185031	959.907297	-389.165125	591.742528	846.622735	-377.083761	586.297384	812.299823	-271.822338	242.364072	627.224279	-387.012436	275.633418	619.096063	-304.812546	174.832040	653.948167	-348.401869	287.939071	473.172366	-412.627917	496.258415	774.261058	-400.428824	433.857531	715.942281	-387.242152	349.543482	691.323439	-389.179246	448.948170	694.302409	-358.469786	366.134881	436.883861	-340.436615	-141.545348	937.943063	-218.753355	17.495406	83.859609	-424.168108	10.510931	80.169205	-26.260979	
